# xmcd
#
# Track frame offsets: 
#        150
#        18440
#        35007
#        50405
#        62150
#        76295
#        90767
#        110079
#        126485
#        135317
#        154015
#        172084
#
# Disc length: 2492 seconds
#
# Revision: 2
# Processed by: cddbd v1.5.2PL0 Copyright (c) Steve Scherf et al.
# Submitted via: ExactAudioCopy v0.95a5
#
DISCID=9a09ba0c
DTITLE=Preacher Boy - Preacher Boy &the Natural Blues
DYEAR=1995
DGENRE=Avantgarde
TTITLE0=Please Call My Baby
TTITLE1=Gun
TTITLE2=Epitaph
TTITLE3=Hidden Cave
TTITLE4=De Vamp
TTITLE5=The Drive Goes On
TTITLE6=Like Me
TTITLE7=Dead, Boy
TTITLE8=Milk and Brown Sugar
TTITLE9=All and Everything You Need
TTITLE10=The Cross Must Move
TTITLE11=Hurry Down Some Good Luck
EXTD=
EXTT0=
EXTT1=
EXTT2=
EXTT3=
EXTT4=
EXTT5=
EXTT6=
EXTT7=
EXTT8=
EXTT9=
EXTT10=
EXTT11=
PLAYORDER=
